<svg width="32" height="32" viewBox="0 0 32 32" fill="none" xmlns="http://www.w3.org/2000/svg">
<rect width="32" height="32" rx="16" fill="#FFC700"/>
<path d="M18.9333 16.9999H11.7067C11.16 16.9999 10.7067 16.5466 10.7067 15.9999V10.2266C10.7067 9.6799 11.16 9.22656 11.7067 9.22656H18.9333C21 9.22656 22.8267 11.0399 22.8267 13.1199C22.8267 15.2532 21.08 16.9999 18.9333 16.9999ZM12.7067 14.9999H18.9333C19.9733 14.9999 20.8267 14.1466 20.8267 13.1066C20.8267 12.2266 20 11.2132 18.9333 11.2132H12.7067V14.9999Z" fill="#FEFEFE"/>
<path d="M19.96 22.7733H11.7067C11.16 22.7733 10.7067 22.32 10.7067 21.7733V16C10.7067 15.4533 11.16 15 11.7067 15H19.96C22.3333 15 24.2667 16.7467 24.2667 18.8933C24.2667 21.04 22.3333 22.7733 19.96 22.7733ZM12.7067 20.7733H19.96C21.2267 20.7733 22.2667 19.92 22.2667 18.88C22.2667 17.84 21.24 16.9867 19.96 16.9867H12.7067V20.7733Z" fill="#FEFEFE"/>
<path d="M16.76 25.6668C16.2133 25.6668 15.76 25.2134 15.76 24.6668V21.7734C15.76 21.2268 16.2133 20.7734 16.76 20.7734C17.3067 20.7734 17.76 21.2268 17.76 21.7734V24.6668C17.76 25.2134 17.32 25.6668 16.76 25.6668Z" fill="#FEFEFE"/>
<path d="M13.16 25.6668C12.6134 25.6668 12.16 25.2134 12.16 24.6668V21.7734C12.16 21.2268 12.6134 20.7734 13.16 20.7734C13.7067 20.7734 14.16 21.2268 14.16 21.7734V24.6668C14.16 25.2134 13.7067 25.6668 13.16 25.6668Z" fill="#FEFEFE"/>
<path d="M16.76 11.2266C16.2133 11.2266 15.76 10.7733 15.76 10.2266V7.33325C15.76 6.78659 16.2133 6.33325 16.76 6.33325C17.3067 6.33325 17.76 6.78659 17.76 7.33325V10.2266C17.76 10.7733 17.32 11.2266 16.76 11.2266Z" fill="#FEFEFE"/>
<path d="M13.16 11.2266C12.6134 11.2266 12.16 10.7733 12.16 10.2266V7.33325C12.16 6.78659 12.6134 6.33325 13.16 6.33325C13.7067 6.33325 14.16 6.78659 14.16 7.33325V10.2266C14.16 10.7733 13.7067 11.2266 13.16 11.2266Z" fill="#FEFEFE"/>
<path d="M14.4534 11.2266H9.40002C8.85336 11.2266 8.40002 10.7732 8.40002 10.2266C8.40002 9.6799 8.85336 9.22656 9.40002 9.22656H14.4534C15 9.22656 15.4534 9.6799 15.4534 10.2266C15.4534 10.7732 15.0134 11.2266 14.4534 11.2266Z" fill="#FEFEFE"/>
<path d="M14.4534 22.7734H9.40002C8.85336 22.7734 8.40002 22.3201 8.40002 21.7734C8.40002 21.2268 8.85336 20.7734 9.40002 20.7734H14.4534C15 20.7734 15.4534 21.2268 15.4534 21.7734C15.4534 22.3201 15.0134 22.7734 14.4534 22.7734Z" fill="#FEFEFE"/>
</svg>
