<svg width="24" height="23" viewBox="0 0 24 23" fill="none" xmlns="http://www.w3.org/2000/svg">
<path d="M15.0344 18.7699L11.9999 21.425M11.9999 21.425L8.96546 18.7699M11.9999 21.425L11.9999 13.8388" stroke="#3A3D42" stroke-width="2" stroke-linecap="round" stroke-linejoin="round"/>
<path d="M7.62425 7.00984C7.62425 7.00984 7.3221 7.92358 7.32267 8.52816C7.32324 9.13258 7.39446 9.48778 7.62697 10.0458" stroke="#3A3D42" stroke-width="2" stroke-linecap="round" stroke-linejoin="round"/>
<path fill-rule="evenodd" clip-rule="evenodd" d="M14.6551 0.700928C11.2115 0.700928 8.35754 2.75508 7.02604 5.66004C6.99977 5.71735 6.94229 5.75406 6.87924 5.75406V5.75406C3.47948 5.75406 0.758545 8.61005 0.758545 11.9335C0.758545 15.3635 3.7797 17.8733 7.06889 17.8733H7.0778H7.08676H7.09576H7.1048H7.11388H7.12301H7.13218H7.14139H7.15064H7.15994H7.16928H7.17866H7.18809H7.19755H7.20706H7.21661H7.2262H7.23583H7.2455H7.25522H7.26497H7.27477H7.2846H7.29448H7.3044H7.31436H7.32436H7.33439H7.34447H7.35459H7.36475H7.37495H7.38519H7.39547H7.40578H7.41614H7.42654H7.43697H7.44744H7.45795H7.46851H7.47909H7.48972H7.50039H7.51109H7.52184H7.53262H7.54343H7.55429H7.56518H7.57611H7.58708H7.59809H7.60913H7.62021H7.63133H7.64248H7.65367H7.6649H7.67616H7.68746H7.69879H7.71016H7.72157H7.73301H7.74449H7.75601H7.76756H7.77914H7.79076H7.80242H7.81411H7.82583H7.83759H7.84939H7.86122H7.87308H7.88498H7.89691H7.90888H7.92088H7.93291H7.94498H7.95708H7.96921H7.98138H7.99358H8.00582H8.01808H8.03038H8.04271H8.05508H8.06748H8.07991H8.09237H8.10486H8.11739H8.12995H8.14254H8.15516H8.16781H8.1805H8.19321H8.20596H8.21874H8.23155H8.24439H8.25726H8.27016H8.28309H8.29605H8.30905H8.32207H8.33512H8.3482H8.36132H8.37446H8.38763H8.40083H8.41406H8.42732H8.44061H8.45392H8.46727H8.48064H8.49405H8.50748H8.52094H8.53443H8.54794H8.56149H8.57506H8.58866H8.60229H8.61594H8.62962H8.64333H8.65707H8.67083H8.68462H8.69844H8.71229H8.72616H8.74005H8.75398H8.76793H8.7819H8.7959H8.80993H8.82398H8.83806H8.85217H8.8663H8.88045H8.89463H8.90884H8.92307H8.93732H8.9516H8.96591H8.98023H8.99459H9.00896H9.02336H9.03779H9.05224H9.06671H9.08121H9.09573H9.11027H9.12483H9.13942H9.15404H9.16867H9.18333H9.19801H9.21271H9.22744H9.24218H9.25695H9.27175H9.28656H9.3014H9.31625H9.33113H9.34603H9.36095H9.3759H9.39086H9.40584H9.42085H9.43588H9.45092H9.46599H9.48108H9.49619H9.51132H9.52646H9.54163H9.55682H9.57203H9.58726H9.6025H9.61777H9.63305H9.64836H9.66368H9.67902H9.69438H9.70976H9.72516H9.74058H9.75601H9.77146H9.78693H9.80242H9.81793H9.83345H9.849H9.86455H9.88013H9.89572H9.91133H9.92696H9.94261H9.95827H9.97394H9.98964H10.0053H10.0211H10.0368H10.0526H10.0683H10.0841H10.0999H10.1158H10.1316H10.1475H10.1633H10.1792H10.1951H10.211H10.2269H10.2429H10.2588H10.2748H10.2908H10.3068H10.3228H10.3388H10.3549H10.3709H10.387H10.4031H10.4192H10.4353H10.4514H10.4675H10.4837H10.4998H10.516H10.5322H10.5484H10.5646H10.5808H10.597H10.6133H10.6295H10.6458H10.6621H10.6784H10.6947H10.711H10.7273H10.7436H10.76H10.7763H10.7927H10.8091H10.8255H10.8419H10.8583H10.8747H10.8911H10.9075H10.924H10.9404H10.9569H10.9734H10.9899H11.0064H11.0229H11.0394H11.0559H11.0724H11.089H11.1055H11.122H11.1386H11.1552H11.1718H11.1883H11.2049H11.2215H11.2381H11.2547H11.2714H11.288H11.3046H11.3213H11.3379H11.3546H11.3712H11.3879H11.4046H11.4212H11.4379H11.4546H11.4713H11.488H11.5047H11.5214H11.5381H11.5549H11.5716H11.5883H11.6051H11.6218H11.6385H11.6553H11.672H11.6888H11.7056H11.7223H11.7391H11.7559H11.7727H11.7894H11.8062H11.823H11.8398H11.8566H11.8734H11.8902H11.907H11.9238H11.9406H11.9574H11.9742H11.991H12.0078H12.0247H12.0415H12.0583H12.0751H12.0919H12.1088H12.1256H12.1424H12.1592H12.1761H12.1929H12.2097H12.2265H12.2434H12.2602H12.277H12.2938H12.3107H12.3275H12.3443H12.3611H12.378H12.3948H12.4116H12.4284H12.4453H12.4621H12.4789H12.4957H12.5125H12.5293H12.5462H12.563H12.5798H12.5966H12.6134H12.6302H12.647H12.6638H12.6806H12.6973H12.7141H12.7309H12.7477H12.7645H12.7812H12.798H12.8148H12.8315H12.8483H12.865H12.8818H12.8985H12.9153H12.932H12.9487H12.9655H12.9822H12.9989H13.0156H13.0323H13.049H13.0657H13.0824H13.0991H13.1157H13.1324H13.1491H13.1657H13.1824H13.199H13.2156H13.2323H13.2489H13.2655H13.2821H13.2987H13.3153H13.3319H13.3485H13.3651H13.3816H13.3982H13.4147H13.4313H13.4478H13.4643H13.4808H13.4973H13.5138H13.5303H13.5468H13.5633H13.5797H13.5962H13.6126H13.629H13.6455H13.6619H13.6783H13.6947H13.711H13.7274H13.7438H13.7601H13.7765H13.7928H13.8091H13.8254H13.8417H13.858H13.8743H13.8905H13.9068H13.923H13.9392H13.9554H13.9716H13.9878H14.004H14.0202H14.0363H14.0525H14.0686H14.0847H14.1008H14.1169H14.133H14.149H14.1651H14.1811H14.1971H14.2131H14.2291H14.2451H14.261H14.277H14.2929H14.3088H14.3247H14.3406H14.3565H14.3724H14.3882H14.404H14.4198H14.4356H14.4514H14.4672H14.4829H14.4987H14.5144H14.5301H14.5458H14.5614H14.5771H14.5927H14.6083H14.6239H14.6395H14.6494V17.8733C14.9514 17.8766 14.9318 17.632 14.6298 17.632H7.9482C7.46257 17.632 7.06889 17.2383 7.06889 16.7527V16.7527C7.06889 16.267 6.67161 15.8821 6.1947 15.7905C4.24168 15.4154 2.75854 13.8131 2.75854 11.9335C2.75854 9.67544 4.62283 7.75406 6.87924 7.75406C7.0893 7.75406 7.29545 7.76951 7.49663 7.79923C7.97382 7.86973 8.43333 7.58954 8.58917 7.13304C9.47328 4.54322 11.8155 2.70093 14.6551 2.70093C18.2689 2.70093 21.2413 5.66896 21.2413 9.28062C21.2413 11.823 19.7422 14.0901 17.5958 15.1832C17.5089 15.2274 17.4655 15.2495 17.4539 15.2558C17.1059 15.4447 16.9417 15.7125 16.9313 16.1084C16.931 16.1215 16.931 16.1485 16.931 16.2026V16.2026C16.931 16.2303 16.931 16.1609 16.9321 16.1848C16.962 16.8084 17.7291 17.2984 18.3075 17.0633C18.3297 17.0543 18.1484 17.1383 18.2209 17.1047C21.1783 15.7342 23.2413 12.6912 23.2413 9.28062C23.2413 4.56215 19.3713 0.700928 14.6551 0.700928Z" fill="#3A3D42"/>
</svg>
