<svg width="20" height="20" viewBox="0 0 20 20" fill="none" xmlns="http://www.w3.org/2000/svg">
<path d="M17.4167 8.20833L17.9083 16.45C17.925 16.675 17.8167 16.825 17.7583 16.8917C17.6917 16.9667 17.55 17.0833 17.3167 17.0833H15.0416L16.8417 8.20833H17.4167ZM18.3333 5L18.325 5.01667C18.3417 5.21667 18.325 5.425 18.275 5.63333L12.1333 16.9083C11.9333 17.75 11.1833 18.3333 10.3167 18.3333H17.3167C18.3917 18.3333 19.2417 17.425 19.1583 16.35L18.3333 5Z" fill="#0EAD98"/>
<path d="M9.54178 1.86658C9.62511 1.53325 9.41678 1.19158 9.08345 1.10825C8.75011 1.03325 8.40845 1.23325 8.32511 1.56658L7.90845 3.29158H9.19178L9.54178 1.86658Z" fill="#0EAD98"/>
<path d="M15.0417 1.84171C15.1167 1.50004 14.9 1.17504 14.5583 1.10004C14.225 1.02504 13.8917 1.24171 13.8167 1.58338L13.4417 3.30838H14.725L15.0417 1.84171Z" fill="#0EAD98"/>
<path d="M18.1833 4.44178C17.9083 3.77511 17.2583 3.30011 16.4583 3.30011H14.725L14.2583 5.45845C14.1916 5.75011 13.9333 5.95011 13.65 5.95011C13.6083 5.95011 13.5583 5.95011 13.5166 5.93345C13.1833 5.85845 12.9666 5.52511 13.0333 5.19178L13.4416 3.29178H9.19162L8.66662 5.45845C8.59996 5.74178 8.34163 5.93345 8.05829 5.93345C8.00829 5.93345 7.95829 5.92511 7.90829 5.91678C7.57496 5.83345 7.36662 5.50011 7.44996 5.15845L7.89996 3.28345H6.20829C5.39162 3.28345 4.66662 3.81678 4.42496 4.60011L0.916625 15.8918C0.549958 17.1001 1.44162 18.3334 2.69996 18.3334H13.65C14.5166 18.3334 15.2666 17.7501 15.4666 16.9084L18.275 5.63345C18.325 5.42511 18.3416 5.21678 18.325 5.01678C18.3083 4.81678 18.2666 4.61678 18.1833 4.44178ZM12.25 13.9584H5.58329C5.24162 13.9584 4.95829 13.6751 4.95829 13.3334C4.95829 12.9918 5.24162 12.7084 5.58329 12.7084H12.25C12.5916 12.7084 12.875 12.9918 12.875 13.3334C12.875 13.6751 12.5916 13.9584 12.25 13.9584ZM13.0833 10.6251H6.41662C6.07496 10.6251 5.79162 10.3418 5.79162 10.0001C5.79162 9.65845 6.07496 9.37511 6.41662 9.37511H13.0833C13.425 9.37511 13.7083 9.65845 13.7083 10.0001C13.7083 10.3418 13.425 10.6251 13.0833 10.6251Z" fill="#0EAD98"/>
</svg>
