<svg width="22" height="23" viewBox="0 0 22 23" fill="none" xmlns="http://www.w3.org/2000/svg">
<path d="M20.1667 15.1886L21.0916 15.569C21.2502 15.1833 21.1528 14.7397 20.8472 14.4559C20.5416 14.1721 20.092 14.1077 19.7191 14.2944L20.1667 15.1886ZM9.34638 1.97972L10.1534 2.5703C10.3989 2.23473 10.4112 1.7822 10.1842 1.4338C9.95719 1.0854 9.53826 0.913843 9.13209 1.00295L9.34638 1.97972ZM16.3293 15.0935C12.0933 15.0935 8.63157 11.5983 8.63157 7.25192L6.63157 7.25192C6.63157 12.6718 10.958 17.0935 16.3293 17.0935L16.3293 15.0935ZM19.7191 14.2944C18.697 14.8061 17.5473 15.0935 16.3293 15.0935L16.3293 17.0935C17.866 17.0935 19.3215 16.7301 20.6144 16.0829L19.7191 14.2944ZM19.2419 14.8083C17.9491 17.9515 14.9031 20.1444 11.3671 20.1444L11.3671 22.1444C15.7568 22.1444 19.507 19.4215 21.0916 15.569L19.2419 14.8083ZM11.3671 20.1444C6.66953 20.1444 2.83348 16.2686 2.83348 11.453L0.833482 11.453C0.833482 17.3421 5.53414 22.1444 11.3671 22.1444L11.3671 20.1444ZM2.83348 11.453C2.83348 7.2741 5.72577 3.79782 9.56067 2.95649L9.13209 1.00295C4.37762 2.04602 0.833483 6.3367 0.833482 11.453L2.83348 11.453ZM8.63157 7.25192C8.63157 5.49437 9.19798 3.87576 10.1534 2.5703L8.5394 1.38915C7.34016 3.02781 6.63157 5.05798 6.63157 7.25192L8.63157 7.25192Z" fill="#3A3D42"/>
</svg>
