<svg width="23" height="25" viewBox="0 0 23 25" fill="none" xmlns="http://www.w3.org/2000/svg">
<path d="M19.2998 15.8697H17.4713C17.3226 15.335 17.0167 14.866 16.5992 14.5326C16.1817 14.1992 15.6748 14.019 15.1541 14.019C14.6333 14.019 14.1265 14.1992 13.7089 14.5326C13.2914 14.866 12.9855 15.335 12.8368 15.8697H4.09868C3.91542 15.8697 3.73967 15.9477 3.61009 16.0865C3.48051 16.2253 3.40771 16.4136 3.40771 16.6099C3.40771 16.8062 3.48051 16.9945 3.61009 17.1334C3.73967 17.2722 3.91542 17.3502 4.09868 17.3502H12.8368C12.9855 17.8848 13.2914 18.3538 13.7089 18.6872C14.1265 19.0207 14.6333 19.2008 15.1541 19.2008C15.6748 19.2008 16.1817 19.0207 16.5992 18.6872C17.0167 18.3538 17.3226 17.8848 17.4713 17.3502H19.2998C19.4831 17.3502 19.6588 17.2722 19.7884 17.1334C19.918 16.9945 19.9908 16.8062 19.9908 16.6099C19.9908 16.4136 19.918 16.2253 19.7884 16.0865C19.6588 15.9477 19.4831 15.8697 19.2998 15.8697Z" fill="#565656"/>
<path d="M4.09865 9.20724L7.30911 9.20734C7.45784 9.74201 7.76372 10.211 8.18125 10.5444C8.59877 10.8778 9.10562 11.058 9.62639 11.058C10.1472 11.058 10.654 10.8778 11.0715 10.5444C11.489 10.211 11.7949 9.74201 11.9437 9.20734L19.2998 9.20724C19.4831 9.20724 19.6588 9.12925 19.7884 8.99043C19.918 8.85161 19.9908 8.66332 19.9908 8.467C19.9908 8.27067 19.918 8.08238 19.7884 7.94356C19.6588 7.80474 19.4831 7.72675 19.2998 7.72675L11.9437 7.72684C11.7949 7.19217 11.489 6.72322 11.0715 6.38978C10.654 6.05634 10.1472 5.87622 9.62639 5.87622C9.10562 5.87622 8.59877 6.05634 8.18125 6.38978C7.76372 6.72322 7.45784 7.19217 7.30911 7.72684L4.09874 7.72675H4.0987C3.91544 7.72674 3.73969 7.80473 3.61011 7.94355C3.48052 8.08237 3.40772 8.27065 3.40771 8.46697C3.40771 8.6633 3.4805 8.85159 3.61008 8.99041C3.73965 9.12924 3.9154 9.20724 4.09865 9.20724H4.09865Z" fill="#565656"/>
</svg>
