<svg width="16" height="18" viewBox="0 0 16 18" fill="none" xmlns="http://www.w3.org/2000/svg">
<path d="M15.6288 1.48817V5.92305C15.6288 6.06924 15.5886 6.21215 15.5132 6.3337C15.4378 6.45526 15.3307 6.54999 15.2054 6.60594C15.0801 6.66188 14.9422 6.67652 14.8091 6.64799C14.6761 6.61947 14.5539 6.54907 14.458 6.4457L12.8854 4.75095L10.6271 7.18485C10.4984 7.32347 10.324 7.40136 10.1421 7.40136C9.96019 7.40137 9.78574 7.32351 9.65711 7.18489C9.52848 7.04628 9.45621 6.85827 9.4562 6.66223C9.4562 6.4662 9.52845 6.27818 9.65707 6.13956L11.9155 3.70561L10.3429 2.01082C10.247 1.90743 10.1817 1.77573 10.1553 1.63235C10.1288 1.48898 10.1424 1.34037 10.1943 1.20531C10.2462 1.07026 10.3341 0.954828 10.4469 0.873609C10.5597 0.792391 10.6923 0.749035 10.8279 0.749023H14.943C15.1248 0.749025 15.2993 0.8269 15.4279 0.965517C15.5565 1.10413 15.6288 1.29214 15.6288 1.48817ZM5.54202 10.5744L3.28365 13.0083L1.71112 11.3136C1.6152 11.2102 1.493 11.1398 1.35995 11.1113C1.22691 11.0827 1.08901 11.0974 0.963681 11.1533C0.838355 11.2093 0.731237 11.304 0.655873 11.4256C0.580508 11.5471 0.540283 11.69 0.540283 11.8362V16.2711C0.540285 16.4671 0.612544 16.6551 0.741164 16.7938C0.869783 16.9324 1.04423 17.0103 1.22612 17.0103H5.34117C5.47681 17.0102 5.6094 16.9669 5.72218 16.8857C5.83496 16.8044 5.92286 16.689 5.97477 16.554C6.02668 16.4189 6.04027 16.2703 6.01382 16.1269C5.98737 15.9835 5.92207 15.8518 5.82617 15.7485L4.2536 14.0537L6.51201 11.6197C6.64063 11.4811 6.71288 11.2931 6.71287 11.097C6.71287 10.901 6.6406 10.713 6.51197 10.5744C6.38334 10.4358 6.20889 10.3579 6.02699 10.3579C5.84509 10.3579 5.67064 10.4358 5.54202 10.5744H5.54202Z" fill="#565656"/>
</svg>
