<svg width="26" height="19" viewBox="0 0 26 19" fill="none" xmlns="http://www.w3.org/2000/svg">
<path d="M6.46172 13.9418C4.04851 13.9418 2.74222 13.4234 2.0278 12.7401C1.32706 12.0699 1 11.0522 1 9.56433C1 8.14476 1.40593 7.10502 2.17982 6.4047C2.9706 5.68908 4.30581 5.18163 6.46173 5.18163C7.7656 5.18163 8.75807 4.89247 9.55011 4.40152C10.327 3.91994 10.8352 3.28856 11.2262 2.76038C11.3087 2.64884 11.3842 2.54514 11.4547 2.44836C11.7469 2.04691 11.9524 1.76456 12.2169 1.53607C12.4789 1.30984 12.7939 1.14922 13.3499 1.14922C13.9239 1.14922 14.3505 1.32169 14.7002 1.62203C15.0696 1.9392 15.4064 2.44667 15.6856 3.1899C16.2509 4.69481 16.4828 6.89818 16.4828 9.56433C16.4828 12.2305 16.2509 14.4331 15.6857 15.9373C15.4065 16.6802 15.0697 17.1873 14.7004 17.5042C14.3507 17.8044 13.9241 17.9768 13.3499 17.9768C12.7981 17.9768 12.5275 17.8199 12.3133 17.6182C12.0944 17.4121 11.9363 17.1722 11.7034 16.819C11.6206 16.6933 11.5283 16.5533 11.4205 16.3954C11.0472 15.8487 10.5471 15.2034 9.73092 14.7144C8.91004 14.2226 7.86109 13.9417 6.46172 13.9418Z" stroke="#3A3D42" stroke-width="2"/>
<path d="M22.0237 2.83887C22.0237 2.83887 23.0701 4.06996 23.5606 5.08025C24.3015 6.60616 24.7133 7.69334 24.7133 9.563C24.7133 11.4327 24.3015 12.5198 23.5606 14.0458C23.0701 15.056 22.0237 16.2871 22.0237 16.2871" stroke="#3A3D42" stroke-width="2" stroke-linecap="round" stroke-linejoin="round"/>
<path d="M20.1724 6.42505C20.1724 6.42505 20.5212 6.99956 20.6847 7.47103C20.9316 8.18312 21.0689 8.69047 21.0689 9.56298C21.0689 10.4355 20.9316 10.9428 20.6847 11.6549C20.5212 12.1264 20.1724 12.7009 20.1724 12.7009" stroke="#3A3D42" stroke-width="2" stroke-linecap="round" stroke-linejoin="round"/>
</svg>
